<svg width="203" height="130" viewBox="0 0 203 130" fill="none" xmlns="http://www.w3.org/2000/svg">
<path d="M55.0388 129.8C46.1588 129.8 38.4188 128.6 31.8188 126.2C25.2188 123.8 19.6988 120.5 15.2588 116.3C10.9388 112.1 7.57875 107.18 5.17875 101.54C2.77875 95.78 1.39875 89.6 1.03875 83C0.79875 79.76 0.61875 75.92 0.498751 71.48C0.498751 67.04 0.498751 62.6 0.498751 58.16C0.61875 53.6 0.79875 49.64 1.03875 46.28C1.39875 39.68 2.77875 33.62 5.17875 28.1C7.69875 22.46 11.2388 17.6 15.7988 13.52C20.3588 9.32 25.8788 6.08 32.3588 3.79999C38.8388 1.39999 46.3988 0.199993 55.0388 0.199993C63.5588 0.199993 71.0588 1.39999 77.5388 3.79999C84.1388 6.08 89.6588 9.32 94.0988 13.52C98.6588 17.6 102.139 22.46 104.539 28.1C107.059 33.62 108.559 39.68 109.039 46.28C109.279 49.64 109.399 53.6 109.399 58.16C109.399 62.6 109.399 67.04 109.399 71.48C109.399 75.92 109.279 79.76 109.039 83C108.559 89.6 107.119 95.78 104.719 101.54C102.439 107.18 99.0788 112.1 94.6388 116.3C90.1988 120.5 84.6788 123.8 78.0788 126.2C71.4788 128.6 63.7988 129.8 55.0388 129.8ZM55.0388 99.02C59.8388 99.02 63.3188 97.46 65.4788 94.34C67.6388 91.22 68.7788 87.14 68.8988 82.1C69.1388 78.62 69.2588 74.84 69.2588 70.76C69.2588 66.68 69.2588 62.6 69.2588 58.52C69.2588 54.32 69.1388 50.6 68.8988 47.36C68.7788 42.56 67.6388 38.6 65.4788 35.48C63.4388 32.24 59.9588 30.56 55.0388 30.44C50.1188 30.56 46.6388 32.24 44.5988 35.48C42.5588 38.6 41.4188 42.56 41.1788 47.36C41.0588 50.6 40.9388 54.32 40.8188 58.52C40.8188 62.6 40.8188 66.68 40.8188 70.76C40.9388 74.84 41.0588 78.62 41.1788 82.1C41.4188 87.14 42.5588 91.22 44.5988 94.34C46.7588 97.46 50.2388 99.02 55.0388 99.02ZM168.118 128C166.798 128 165.658 127.58 164.698 126.74C163.858 125.78 163.438 124.64 163.438 123.32V44.12L140.938 61.4C139.738 62.12 138.538 62.36 137.338 62.12C136.258 61.88 135.238 61.16 134.278 59.96L121.138 42.86C120.538 41.78 120.298 40.58 120.418 39.26C120.658 37.94 121.378 36.92 122.578 36.2L165.058 3.26C165.658 2.78 166.258 2.48 166.858 2.36C167.458 2.11999 168.178 1.99999 169.018 1.99999H197.278C198.598 1.99999 199.738 2.47999 200.698 3.43999C201.658 4.27999 202.138 5.35999 202.138 6.68V123.32C202.138 124.64 201.658 125.78 200.698 126.74C199.738 127.58 198.598 128 197.278 128H168.118Z" fill="white"/>
</svg>
